<?xml version="1.0" encoding="UTF-8" standalone="no"?>
<svg
   xmlns:dc="http://purl.org/dc/elements/1.1/"
   xmlns:cc="http://creativecommons.org/ns#"
   xmlns:rdf="http://www.w3.org/1999/02/22-rdf-syntax-ns#"
   xmlns:svg="http://www.w3.org/2000/svg"
   xmlns="http://www.w3.org/2000/svg"
   xmlns:sodipodi="http://sodipodi.sourceforge.net/DTD/sodipodi-0.dtd"
   xmlns:inkscape="http://www.inkscape.org/namespaces/inkscape"
   inkscape:version="1.0 (4035a4f, 2020-05-01)"
   sodipodi:docname="Logo Supermarchés G20 (2011).svg"
   viewBox="0 0 700 386.42794"
   height="386.42795"
   width="700"
   xml:space="preserve"
   id="svg10"
   version="1.1"><metadata
     id="metadata16"><rdf:RDF><cc:Work
         rdf:about=""><dc:format>image/svg+xml</dc:format><dc:type
           rdf:resource="http://purl.org/dc/dcmitype/StillImage" /><dc:title></dc:title></cc:Work></rdf:RDF></metadata><defs
     id="defs14"><linearGradient
       id="linearGradient80"
       spreadMethod="pad"
       gradientTransform="matrix(153.4411,0,0,153.4411,95.578169,736.36433)"
       gradientUnits="userSpaceOnUse"
       y2="0"
       x2="1"
       y1="0"
       x1="0"><stop
         id="stop72"
         offset="0"
         style="stop-opacity:1;stop-color:#1a763e" /><stop
         id="stop74"
         offset="0.0955"
         style="stop-opacity:1;stop-color:#1a763e" /><stop
         id="stop76"
         offset="0.81461"
         style="stop-opacity:1;stop-color:#4eb14b" /><stop
         id="stop78"
         offset="1"
         style="stop-opacity:1;stop-color:#4eb14b" /></linearGradient><linearGradient
       id="linearGradient104"
       spreadMethod="pad"
       gradientTransform="matrix(153.38306,0,0,153.38306,95.579436,742.28568)"
       gradientUnits="userSpaceOnUse"
       y2="0"
       x2="1"
       y1="0"
       x1="0"><stop
         id="stop96"
         offset="0"
         style="stop-opacity:1;stop-color:#15562d" /><stop
         id="stop98"
         offset="0.0955"
         style="stop-opacity:1;stop-color:#15562d" /><stop
         id="stop100"
         offset="0.81461"
         style="stop-opacity:1;stop-color:#34823c" /><stop
         id="stop102"
         offset="1"
         style="stop-opacity:1;stop-color:#34823c" /></linearGradient><linearGradient
       id="linearGradient128"
       spreadMethod="pad"
       gradientTransform="matrix(116.52313,0,0,116.52313,27.40165,751.68729)"
       gradientUnits="userSpaceOnUse"
       y2="0"
       x2="1"
       y1="0"
       x1="0"><stop
         id="stop120"
         offset="0"
         style="stop-opacity:1;stop-color:#bf261f" /><stop
         id="stop122"
         offset="0.05995"
         style="stop-opacity:1;stop-color:#bf261f" /><stop
         id="stop124"
         offset="0.78177"
         style="stop-opacity:1;stop-color:#f25b25" /><stop
         id="stop126"
         offset="1"
         style="stop-opacity:1;stop-color:#f25b25" /></linearGradient></defs><sodipodi:namedview
     inkscape:current-layer="g18"
     inkscape:window-maximized="0"
     inkscape:window-y="0"
     inkscape:window-x="0"
     inkscape:cy="288.68552"
     inkscape:cx="321.46153"
     inkscape:zoom="0.72063762"
     showgrid="false"
     id="namedview12"
     inkscape:window-height="900"
     inkscape:window-width="1440"
     inkscape:pageshadow="2"
     inkscape:pageopacity="0"
     guidetolerance="10"
     gridtolerance="10"
     objecttolerance="10"
     borderopacity="1"
     bordercolor="#666666"
     pagecolor="#ffffff" /><g
     transform="matrix(1.3333333,0,0,-1.3333333,-36.534666,1094.1737)"
     inkscape:label="Logo Supermarchés G20"
     inkscape:groupmode="layer"
     id="g18"><g
       transform="matrix(2.2931723,0,0,2.2931723,-35.434214,-1061.2164)"
       id="g7912"><g
         id="g60"><g
           id="g62"><g
             id="g68"><g
               id="g70"><path
                 d="m 144.112,778.482 -22.645,-72.355 -22.068,-0.036 22.431,72.352 22.282,0.039 H 121.76 L 95.578,694.246 h 127.379 l 25.836,83.699 v 0.537 z"
                 style="fill:url(#linearGradient80);stroke:none"
                 id="path82" /></g></g></g></g><g
         id="g84"><g
           id="g86"><g
             id="g92"><g
               id="g94"><path
                 d="m 143.81,778.481 -21.98,-0.038 -22.431,-72.352 22.068,0.036 22.644,72.354 z"
                 style="fill:url(#linearGradient104);stroke:none"
                 id="path106" /></g></g></g></g><g
         id="g108"><g
           id="g110"><g
             id="g116"><g
               id="g118"><path
                 d="M 53.585,793.805 27.401,709.57 h 90.312 l 26.211,84.235 z"
                 style="fill:url(#linearGradient128);stroke:none"
                 id="path130" /></g></g></g></g><path
         id="path142"
         style="fill:#ffffff;fill-opacity:1;fill-rule:nonzero;stroke:none"
         d="m 86.0914,738.3797 h 12.596 c -5.642,-5.078 -12.97,-8.355 -20.218,-8.372 -12.94,-0.031 -20.08,10.399 -16.12,22.93 3.825,12.117 16.708,21.789 28.961,21.967 8.381,0.11 14.584,-4.28 16.691,-10.96 l 10.591,4.285 c -2.749,10.284 -11.984,17.058 -24.527,16.854 -17.524,-0.262 -36.053,-14.056 -41.744,-31.475 -5.955,-18.231 4.234,-33.628 23.173,-33.628 9.711,0 19.503,4.042 27.378,10.455 l -3.445,-11.529 h 10.059 l 9.082,29.05 h -29.449 z" /><path
         id="path146"
         style="fill:#ffffff;fill-opacity:1;fill-rule:nonzero;stroke:none"
         d="m 192.7893,756.4043 c -5.647,-4.837 -9.479,-11.436 -11.387,-19.619 -0.745,-3.196 -1.117,-6.153 -1.117,-8.863 0,-4.6 1.072,-8.487 3.21,-11.614 3.107,-4.524 7.61,-6.854 13.386,-6.927 5.746,-0.072 11.233,2.106 16.307,6.473 5.651,4.802 9.52,11.483 11.499,19.853 1.998,8.425 1.29,15.233 -2.103,20.239 -3.043,4.554 -7.544,6.901 -13.377,6.974 -5.792,0.073 -11.315,-2.118 -16.418,-6.516 m 5.708,-39.147 v 0 c -3.385,0.044 -5.706,1.779 -7.098,5.308 -1.383,3.66 -1.432,8.316 -0.142,13.834 1.237,5.319 3.447,9.817 6.57,13.369 3.085,3.502 6.361,5.255 9.734,5.213 3.658,-0.045 6.621,-2.027 7.93,-5.3 1.43,-3.603 1.503,-8.192 0.214,-13.642 -1.188,-5.035 -3.56,-9.597 -7.049,-13.559 -3,-3.413 -6.607,-5.268 -10.159,-5.223" /><path
         id="path150"
         style="fill:#ffffff;fill-opacity:1;fill-rule:nonzero;stroke:none"
         d="m 140.515,746.817 -0.203,-0.615 h 9.662 l 0.105,0.315 c 2.088,6.151 5.86,9.141 11.534,9.141 2.66,0 4.753,-0.791 6.221,-2.349 1.464,-1.559 1.944,-3.445 1.466,-5.766 -0.338,-1.632 -1.418,-3.505 -3.211,-5.561 -0.892,-1.063 -2.149,-2.38 -3.847,-4.036 -1.538,-1.497 -3.486,-3.312 -6.13,-5.712 l -25.421,-22.892 h 39.678 l 2.383,8.378 h -20.831 c 1.552,1.373 10.005,8.848 10.005,8.848 2.933,2.57 5.504,4.922 7.639,6.986 2.078,2.007 3.653,3.689 4.811,5.142 2.253,2.778 3.712,5.681 4.333,8.626 0.221,1.093 0.331,2.148 0.331,3.162 0,3.32 -1.184,6.21 -3.539,8.62 -3.021,3.142 -7.286,4.735 -12.676,4.735 -11.099,0 -18.604,-5.726 -22.31,-17.022" /></g><g
       transform="matrix(2.2931723,0,0,2.2931723,-35.434214,-1061.2164)"
       id="g7892"><path
         id="path154"
         style="fill:#000000;fill-opacity:1;fill-rule:nonzero;stroke:none"
         d="m 68.0665,810.9476 c -0.557,0.58 -1.411,0.966 -2.465,0.966 -0.79,0 -2.009,-0.406 -2.335,-1.218 -0.345,-0.85 0.687,-1.178 1.348,-1.39 l 0.979,-0.291 c 2.064,-0.599 3.428,-1.623 2.476,-3.98 -0.587,-1.451 -1.583,-2.938 -3.3,-3.924 -1.686,-0.967 -3.584,-1.373 -5.252,-1.373 -2.087,0 -3.878,0.619 -5.147,1.661 l 3.078,3.055 c 0.741,-0.83 1.74,-1.507 3.211,-1.507 1.01,0 2.266,0.444 2.682,1.468 0.428,1.064 -1.115,1.43 -1.943,1.664 -2.428,0.675 -3.956,1.294 -2.815,4.115 1.195,2.957 4.37,4.89 7.685,4.89 1.669,0 3.523,-0.465 4.698,-1.199 z" /><path
         id="path158"
         style="fill:#000000;fill-opacity:1;fill-rule:nonzero;stroke:none"
         d="m 253.4445,810.9476 c -0.56,0.58 -1.412,0.966 -2.466,0.966 -0.792,0 -2.009,-0.406 -2.337,-1.218 -0.344,-0.85 0.687,-1.178 1.349,-1.39 l 0.979,-0.291 c 2.064,-0.599 3.428,-1.623 2.476,-3.98 -0.587,-1.451 -1.582,-2.938 -3.299,-3.924 -1.686,-0.967 -3.584,-1.373 -5.253,-1.373 -2.087,0 -3.878,0.619 -5.146,1.661 l 3.079,3.055 c 0.738,-0.83 1.739,-1.507 3.209,-1.507 1.011,0 2.267,0.444 2.68,1.468 0.43,1.064 -1.113,1.43 -1.94,1.664 -2.427,0.675 -3.958,1.294 -2.815,4.115 1.193,2.957 4.37,4.89 7.683,4.89 1.669,0 3.522,-0.465 4.698,-1.199 z" /><path
         id="path162"
         style="fill:#000000;fill-opacity:1;fill-rule:nonzero;stroke:none"
         d="m 89.865,814.6967 -3.312,-8.194 c -0.757,-1.875 -1.596,-3.729 -3.812,-5.142 -1.868,-1.197 -4.214,-1.623 -6.145,-1.623 -1.934,0 -3.935,0.426 -4.834,1.623 -1.077,1.413 -0.414,3.267 0.343,5.142 l 3.311,8.194 h 4.304 l -3.101,-7.673 c -0.765,-1.893 -1.447,-3.961 1.32,-3.961 2.766,0 3.755,2.068 4.521,3.961 l 3.102,7.673 z" /><path
         id="path166"
         style="fill:#000000;fill-opacity:1;fill-rule:nonzero;stroke:none"
         d="m 94.511,814.6967 h 6.588 c 3.557,0 5.43,-1.449 4.078,-4.793 -1.39,-3.44 -4.107,-4.947 -7.862,-4.947 h -2.438 l -1.953,-4.832 h -4.303 z m 1.601,-6.687 h 0.723 c 1.561,0 3.097,0 3.816,1.778 0.742,1.837 -0.677,1.856 -2.345,1.856 H 97.58 Z" /><path
         id="path170"
         style="fill:#000000;fill-opacity:1;fill-rule:nonzero;stroke:none"
         d="m 113.2704,811.4893 -0.984,-2.436 h 4.852 l -1.296,-3.208 h -4.853 l -1.015,-2.512 h 5.116 l -1.297,-3.209 h -9.42 l 5.89,14.573 h 9.42 l -1.295,-3.208 z" /><path
         id="path174"
         style="fill:#000000;fill-opacity:1;fill-rule:nonzero;stroke:none"
         d="m 131.808,800.1247 h -5.358 l -1.796,5.604 h -0.043 l -2.266,-5.604 h -4.303 l 5.889,14.572 h 6.434 c 3.271,0 5.198,-1.373 3.94,-4.484 -0.812,-2.009 -2.79,-3.75 -5.286,-4.116 z m -6.213,8.041 h 0.416 c 1.407,0 3.082,0.231 3.721,1.816 0.641,1.585 -0.847,1.816 -2.252,1.816 h -0.417 z" /><path
         id="path178"
         style="fill:#000000;fill-opacity:1;fill-rule:nonzero;stroke:none"
         d="m 141.5694,814.6967 h 4.238 l 0.211,-7.789 6.705,7.789 h 4.283 l -3.388,-14.572 h -4.304 l 2.184,8.389 h -0.045 l -7.363,-8.389 h -1.713 l -0.409,8.389 h -0.043 l -4.774,-8.389 h -4.282 z" /><path
         id="path182"
         style="fill:#000000;fill-opacity:1;fill-rule:nonzero;stroke:none"
         d="m 161.2108,802.6567 -2.165,-2.532 h -4.567 l 12.257,14.572 h 4.699 l 0.346,-14.572 h -4.589 l -0.053,2.532 z m 6.055,7.537 h -0.044 l -3.652,-4.638 h 3.579 z" /><path
         id="path186"
         style="fill:#000000;fill-opacity:1;fill-rule:nonzero;stroke:none"
         d="m 188.6559,800.1247 h -5.359 l -1.797,5.604 h -0.044 l -2.264,-5.604 h -4.304 l 5.891,14.572 h 6.433 c 3.273,0 5.198,-1.373 3.939,-4.484 -0.811,-2.009 -2.787,-3.75 -5.286,-4.116 z m -6.213,8.041 h 0.415 c 1.407,0 3.081,0.231 3.72,1.816 0.642,1.585 -0.845,1.816 -2.25,1.816 h -0.418 z" /><path
         id="path190"
         style="fill:#000000;fill-opacity:1;fill-rule:nonzero;stroke:none"
         d="m 207.1617,809.8073 c -0.456,1.044 -1.656,1.605 -3.128,1.605 -2.635,0 -5.132,-1.779 -6.046,-4.04 -0.93,-2.3 0.199,-3.962 2.878,-3.962 1.405,0 3.053,0.599 4.335,1.547 l -1.836,-4.543 c -1.582,-0.386 -2.732,-0.676 -4.07,-0.676 -2.306,0 -4.19,0.774 -5.349,2.146 -1.237,1.448 -1.304,3.343 -0.429,5.507 0.804,1.991 2.432,3.906 4.593,5.335 2.218,1.468 4.926,2.358 7.254,2.358 1.383,0 2.548,-0.271 3.634,-0.736 z" /><path
         id="path194"
         style="fill:#000000;fill-opacity:1;fill-rule:nonzero;stroke:none"
         d="m 221.8678,809.0725 2.273,5.624 h 4.304 l -5.89,-14.572 h -4.305 l 2.414,5.972 h -6.213 l -2.415,-5.972 h -4.303 l 5.89,14.572 h 4.303 l -2.272,-5.624 z" /><path
         id="path198"
         style="fill:#000000;fill-opacity:1;fill-rule:nonzero;stroke:none"
         d="m 235.4447,811.4893 -0.984,-2.436 h 4.853 l -1.296,-3.208 h -4.851 l -1.017,-2.512 h 5.115 l -1.297,-3.209 h -9.421 l 5.892,14.573 h 9.419 l -1.295,-3.208 z m 1.232,4.677 -1.318,1.14 4.44,3.324 1.813,-1.546 z" /></g></g></svg>
